<svg width="22" height="22" viewBox="0 0 22 22" fill="none" xmlns="http://www.w3.org/2000/svg">
<path d="M10.8333 0C4.85333 0 0 4.85333 0 10.8333C0 16.8133 4.85333 21.6667 10.8333 21.6667C16.8133 21.6667 21.6667 16.8133 21.6667 10.8333C21.6667 4.85333 16.8133 0 10.8333 0ZM10.8333 4.33333C12.9242 4.33333 14.625 6.03417 14.625 8.125C14.625 10.2158 12.9242 11.9167 10.8333 11.9167C8.7425 11.9167 7.04167 10.2158 7.04167 8.125C7.04167 6.03417 8.7425 4.33333 10.8333 4.33333ZM10.8333 19.5C8.63417 19.5 6.03417 18.6117 4.18167 16.38C6.07947 14.8917 8.42157 14.0829 10.8333 14.0829C13.2451 14.0829 15.5872 14.8917 17.485 16.38C15.6325 18.6117 13.0325 19.5 10.8333 19.5Z" fill="black"/>
</svg>
