<svg width="19" height="20" viewBox="0 0 19 20" fill="none" xmlns="http://www.w3.org/2000/svg">
<path d="M9.5 0C4.24786 0 0 3.13 0 7C0 12.25 9.5 20 9.5 20C9.5 20 19 12.25 19 7C19 3.13 14.7521 0 9.5 0ZM9.5 9.5C8.60016 9.5 7.73717 9.23661 7.10089 8.76777C6.4646 8.29893 6.10714 7.66304 6.10714 7C6.10714 6.33696 6.4646 5.70107 7.10089 5.23223C7.73717 4.76339 8.60016 4.5 9.5 4.5C10.3998 4.5 11.2628 4.76339 11.8991 5.23223C12.5354 5.70107 12.8929 6.33696 12.8929 7C12.8929 7.66304 12.5354 8.29893 11.8991 8.76777C11.2628 9.23661 10.3998 9.5 9.5 9.5Z" fill="black"/>
</svg>
